<?xml version="1.0" encoding="utf-8"?>
<!-- Generator: Adobe Illustrator 26.3.1, SVG Export Plug-In . SVG Version: 6.00 Build 0)  -->
<svg version="1.1" id="Layer_1" xmlns="http://www.w3.org/2000/svg" xmlns:xlink="http://www.w3.org/1999/xlink" x="0px" y="0px"
	 viewBox="0 0 227.1011963 64.5237427" style="enable-background:new 0 0 227.1011963 64.5237427;" xml:space="preserve">
<style type="text/css">
	.st0{fill:#FFFFFF;}
</style>
<path class="st0" d="M65.6372986,8.5195618V31.374115h-7.0447083v-4.1367493
	c-0.6553955,1.3367004-1.6308899,2.4016113-2.9303894,3.1947021c-1.2958069,0.7930908-2.8037109,1.1877747-4.5239868,1.1877747
	c-2.6213074,0-4.7026978-0.875-6.2442322-2.6212769c-1.5415039-1.7463074-2.315979-4.1516724-2.315979-7.2086182V8.5195618
	h6.9628601v12.4103088c0,1.556366,0.4021301,2.7627563,1.2101135,3.6228943
	c0.8042603,0.8601074,1.8915405,1.2920227,3.2543335,1.2920227s2.5393982-0.450531,3.35849-1.3516235
	c0.8192139-0.901062,1.2287903-2.1856689,1.2287903-3.8500977V8.5195618H65.6372986z"/>
<path class="st0" d="M85.7261047,10.4028931c1.7350769,1.4483948,2.8186951,3.35849,3.2579956,5.7341003h-6.5532227
	c-0.1898804-0.9272156-0.6218872-1.6607056-1.2883911-2.1893921c-0.6701965-0.5324097-1.5079956-0.8005066-2.5207214-0.8005066
	c-0.7931213,0-1.3925781,0.1712036-1.8021545,0.5137939s-0.6143799,0.8265991-0.6143799,1.4559021
	c0,0.7110901,0.3760681,1.2435913,1.1244812,1.59729c0.7521362,0.3538208,1.9324646,0.7112122,3.5446777,1.0649109
	c1.7463074,0.4096069,3.1799011,0.8265991,4.3005981,1.247406c1.1207886,0.4244995,2.0888977,1.1132812,2.9081116,2.0664978
	c0.8190918,0.9569397,1.2286987,2.237793,1.2286987,3.8500366c0,1.3106689-0.3536987,2.4723816-1.0649109,3.4814453
	c-0.7111816,1.0090637-1.7351074,1.8021545-3.0718994,2.3755493c-1.3367004,0.5734253-2.9228821,0.8601074-4.7510986,0.8601074
	c-3.086731,0-5.5553894-0.681366-7.4133911-2.0478821s-2.9899292-3.3175964-3.3995056-5.8569946h6.7580566
	c0.1080017,0.9830017,0.5250244,1.7351379,1.2473755,2.2526855c0.7223511,0.5175781,1.6606445,0.7781982,2.8074646,0.7781982
	c0.7930908,0,1.3926086-0.1861572,1.8022156-0.5510559c0.4094849-0.3686218,0.6142883-0.8526917,0.6142883-1.4558716
	c0-0.7930908-0.3760071-1.3590698-1.1245117-1.7016296c-0.7520752-0.3425598-1.9733887-0.7037354-3.6675415-1.0872498
	c-1.6941833-0.3537598-3.0867615-0.7372437-4.1777039-1.1468506c-1.0909729-0.4094849-2.03302-1.0722961-2.8261108-1.9883118
	c-0.7930908-0.9159851-1.1877747-2.1632996-1.1877747-3.7457886c0-2.0479126,0.7781982-3.7084961,2.3345947-4.9782104
	c1.5563965-1.2696838,3.7532349-1.9063721,6.5942383-1.9063721s5.2091064,0.72229,6.9442139,2.1706848L85.7261047,10.4028931z"/>
<path class="st0" d="M106.1408997,25.353302v6.020813h-3.1536865c-2.6772156,0-4.7586365-0.6627808-6.2442932-1.9845886
	c-1.4893799-1.3255615-2.2340698-3.5149536-2.2340698-6.5756226v-8.3964233h-3.0718384V8.5195618h3.0718384V2.9083557h7.0038757
	v5.6112061h4.5872803v5.8979187h-4.5872803v8.5192871c0,0.9010925,0.1860962,1.5303345,0.5547791,1.8840637
	c0.3685913,0.3537292,0.9904175,0.5324707,1.8616943,0.5324707H106.1408997z"/>
<path class="st0" d="M117.3819275,15.8509827c-0.9159546,0.9830017-1.3702393,2.3495178-1.3702393,4.0957947
	c0,1.7463074,0.4579773,3.1128235,1.3702393,4.0958252c0.9159851,0.9829712,2.1223755,1.4744873,3.6266785,1.4744873
	c1.5042114,0,2.6846008-0.5063782,3.6266174-1.5154419c0.9419861-1.0090637,1.4111938-2.3606567,1.4111938-4.0548706
	c0-1.6941833-0.4692078-3.0792847-1.4111938-4.0733948c-0.9420166-0.9978943-2.1522217-1.4968872-3.6266174-1.4968872
	C119.5341187,14.3764954,118.2979126,14.867981,117.3819275,15.8509827z M123.2612,9.4205933
	c1.2548218,0.7930908,2.1856995,1.8692017,2.7852173,3.2356873V8.5195007h6.9627991v22.8545837h-6.9627991v-4.1367798
	c-0.5995178,1.3665161-1.5303955,2.4425964-2.7852173,3.2356873c-1.2547913,0.7930908-2.7590027,1.1877747-4.5053101,1.1877747
	c-1.8840637,0-3.5708008-0.4691467-5.0564575-1.4111938c-1.4893799-0.9420166-2.662262-2.3010864-3.5223694-4.0734253
	c-0.8601379-1.7760925-1.2920532-3.8500671-1.2920532-6.225647c0-2.3755188,0.4319153-4.4830017,1.2920532-6.2442017
	c0.8601074-1.7612,2.0329895-3.1128235,3.5223694-4.0548096c1.4893799-0.9421082,3.1723938-1.4111938,5.0564575-1.4111938
	c1.7463074,0,3.2505188,0.3946838,4.5053101,1.1878052V9.4205933z"/>
<path class="st0" d="M191.3261108,0.860199C191.884613,0.2867737,192.5772095,0,193.3963013,0
	c0.8192139,0,1.5490112,0.2867737,2.1112061,0.860199c0.5585022,0.5733948,0.8377991,1.2845764,0.8377991,2.1297913
	c0,0.8451843-0.2792969,1.5079956-0.8377991,2.0701904c-0.5585022,0.5623169-1.262207,0.8377991-2.1112061,0.8377991
	c-0.8489075,0-1.5079956-0.2792969-2.0701904-0.8377991c-0.5585022-0.5585022-0.8377991-1.2510986-0.8377991-2.0701904
	C190.4883118,2.1707764,190.7676086,1.4335938,191.3261108,0.860199z M184.9291992,15.8507996
	c-0.9159851,0.9830017-1.3702393,2.3494873-1.3702393,4.0957947c0,1.7462769,0.4580078,3.112793,1.3702393,4.0957642
	c0.9159546,0.9830017,2.122406,1.4744873,3.6266174,1.4744873c1.504303,0,2.6846008-0.5063782,3.6228943-1.5154419
	c0.9420776-1.0090637,1.4111938-2.3606262,1.4111938-4.0548096c0-1.6942139-0.4691162-3.0793152-1.4111938-4.0735168
	c-0.9420166-0.9978943-2.148407-1.4967957-3.6228943-1.4967957
	C187.0812988,14.3762817,185.8451538,14.8677979,184.9291992,15.8507996z M183.0116272,0.860199
	C183.5701294,0.2867737,184.2738647,0,185.1228027,0s1.5490112,0.2867737,2.1112061,0.860199
	c0.5585022,0.5733948,0.8377991,1.2845764,0.8377991,2.1297913c0,0.8451843-0.2792969,1.5079956-0.8377991,2.0701904
	c-0.5585022,0.5585022-1.2622681,0.8377991-2.1112061,0.8377991s-1.5489502-0.2792969-2.1111755-0.8377991
	c-0.5585327-0.5585022-0.8377991-1.2510986-0.8377991-2.0701904C182.1738281,2.1707764,182.4530945,1.4335938,183.0116272,0.860199z
	 M190.8085022,9.4203796c1.2547913,0.7931213,2.1856995,1.8692017,2.7851868,3.2357178V8.5192871h6.9628296v22.8545532h-6.9628296
	v-4.1367493c-0.5994873,1.3665161-1.5303955,2.4425659-2.7851868,3.2356567
	c-1.2547913,0.7931213-2.7590942,1.1878052-4.5053406,1.1878052c-1.8840637,0-3.5708008-0.4691772-5.0564575-1.4111938
	c-1.4893799-0.9420471-2.6622925-2.3010864-3.5223999-4.0734558c-0.8601074-1.7760925-1.2882996-3.8500671-1.2882996-6.2256165
	c0-2.3756104,0.4319153-4.4830017,1.2882996-6.2442017c0.8601074-1.7612,2.03302-3.112793,3.5223999-4.0549011
	c1.4893799-0.9419861,3.1760864-1.4111938,5.0564575-1.4111938c1.7462463,0,3.2505493,0.3946838,4.5053406,1.1878052V9.4203796z"/>
<path class="st0" d="M218.8016052,14.8868713c-0.8340149-0.7520752-1.8617249-1.1244812-3.0904236-1.1244812
	c-1.2287903,0-2.3495178,0.383606-3.1947327,1.1468811c-0.8452148,0.7633057-1.325531,1.8840027-1.4335327,3.3585205h8.928894
	C220.0377808,16.7672729,219.6356812,15.6390686,218.8016052,14.8868713z M226.8927002,21.2167969h-15.8507385
	c0.0819092,1.7202148,0.5175476,2.9563904,1.3106689,3.7085266c0.7930603,0.7521362,1.8021545,1.1282043,3.0308533,1.1282043
	c1.0389099,0,1.8990173-0.2606201,2.5804138-0.7781982c0.6813965-0.5175476,1.131897-1.1877747,1.351593-2.0069275h7.4133911
	c-0.3015747,1.6122437-0.9569702,3.0532227-1.9659729,4.322937c-1.0091248,1.2696838-2.2936096,2.2675781-3.8500061,2.9899292
	c-1.5563965,0.7223206-3.2915955,1.0834961-5.2017212,1.0834961c-2.237793,0-4.2261353-0.4691467-5.9575195-1.4111938
	c-1.7351379-0.9420166-3.0904846-2.3010864-4.0772095-4.0734253c-0.9829712-1.7760925-1.4744568-3.8500671-1.4744568-6.225647
	c0-2.3755188,0.4840393-4.4830017,1.4558716-6.2442017c0.9680786-1.7612,2.3271484-3.1128235,4.077179-4.0548096
	c1.7462769-0.9421082,3.7420654-1.4111938,5.9798584-1.4111938s4.2595825,0.4653931,5.9798889,1.3925781
	c1.7202148,0.927124,3.0531921,2.2340088,3.9952087,3.9096069c0.9420776,1.6793213,1.4111938,3.6116943,1.4111938,5.7973938
	c0,0.5734253-0.0670166,1.2026978-0.2048035,1.8841248L226.8927002,21.2167969z"/>
<path class="st0" d="M5.171875,43.2399597c0.9234161-0.5585022,1.9920349-0.8414917,3.1984558-0.8414917v3.3063965H7.4655151
	c-1.3329926,0-2.4053497,0.3239136-3.2133331,0.9718018c-0.8079987,0.6479187-1.2138519,1.7202454-1.2138519,3.2133484v7.43573H0
	V42.6367798h3.0383301v2.8782043c0.4989471-0.9607239,1.2101288-1.7202148,2.1335449-2.2788086V43.2399597z"/>
<path class="st0" d="M13.6767883,42.6365662v14.6889954h-3.0383301V42.6365662H13.6767883z M10.7464294,37.0922852
	c0.3537292-0.3388062,0.8266296-0.5063171,1.4111938-0.5063171c0.5845947,0,1.0611877,0.167511,1.4260864,0.5063171
	c0.3648987,0.3388977,0.5473633,0.7633972,0.5473633,1.2808838c0,0.5176086-0.1824646,0.9346008-0.5473633,1.2547913
	c-0.3648987,0.3202209-0.8414917,0.4803162-1.4260864,0.4803162c-0.5845642,0-1.0574646-0.1600952-1.4111938-0.4803162
	c-0.3574524-0.3201904-0.5324402-0.7371826-0.5324402-1.2547913C10.2139893,37.8556824,10.3927002,37.4311829,10.7464294,37.0922852
	z"/>
<path class="st0" d="M20.3975525,42.6365662v14.6889954h-3.0383606V42.6365662H20.3975525z M17.4634705,37.0922852
	c0.3536987-0.3388062,0.8265991-0.5063171,1.4111633-0.5063171c0.5845947,0,1.0611877,0.167511,1.4260864,0.5063171
	c0.3648987,0.3388977,0.5473633,0.7633972,0.5473633,1.2808838c0,0.5176086-0.1824646,0.9346008-0.5473633,1.2547913
	c-0.3648987,0.3202209-0.8414917,0.4803162-1.4260864,0.4803162c-0.5845642,0-1.0574646-0.1600952-1.4111633-0.4803162
	c-0.3537292-0.3201904-0.5324707-0.7371826-0.5324707-1.2547913C16.9309998,37.8556824,17.1097412,37.4311829,17.4634705,37.0922852
	z"/>
<path class="st0" d="M27.6583862,46.4090881c-0.8079834,0.8638916-1.2138672,2.0479126-1.2138672,3.5596924
	c0,1.5117188,0.4021301,2.6957092,1.2138672,3.5596008c0.8079834,0.8638,1.8877869,1.2920532,3.2394104,1.2920532
	c0.8526611,0,1.6159668-0.2010803,2.2936401-0.5995483c0.6739807-0.398407,1.2100525-0.9642944,1.6010742-1.6940918
	c0.3909912-0.7297974,0.5882874-1.582489,0.5882874-2.5580139c0-0.9755859-0.1972961-1.8096008-0.5882874-2.546875
	c-0.3910217-0.7372131-0.9234009-1.3069153-1.6010742-1.7053223c-0.6739502-0.3983765-1.440979-0.5994873-2.2936401-0.5994873
	C29.5461731,45.1170959,28.4663696,45.5489807,27.6583862,46.4090881z M33.377594,43.4378052
	c0.9420166,0.6590881,1.6085205,1.5303955,1.9995117,2.6138916v-3.4107056h3.0382996v14.8491211
	c0,1.3665161-0.2792053,2.5803833-0.8414917,3.6378479c-0.5585022,1.0574341-1.3628235,1.8877869-2.4128113,2.4909668
	c-1.0499878,0.6032104-2.2936096,0.9048157-3.7308655,0.9048157c-2.0628052,0-3.7271729-0.487793-4.9968872-1.467041
	c-1.2696838-0.9792786-2.0664978-2.3011169-2.3867188-3.9729309h3.0122681
	c0.2494812,0.8712769,0.7297974,1.5489502,1.440979,2.0404663c0.7111816,0.4877625,1.6159668,0.7335205,2.7181091,0.7335205
	c1.2063904,0,2.2043152-0.3723755,2.9862061-1.1207886c0.7819214-0.7446899,1.1729126-1.8319092,1.1729126-3.2505493v-3.5708313
	c-0.3909912,1.0835571-1.0574951,1.954834-1.9995117,2.6138916s-2.0776672,0.9867249-3.410675,0.9867249
	s-2.4202576-0.3016052-3.4255676-0.9048157c-1.0053406-0.6031799-1.7909851-1.4744873-2.3606873-2.6138916
	c-0.5696716-1.1355896-0.8526611-2.4797974-0.8526611-4.0249939s0.2829895-2.8596191,0.8526611-3.9990234
	c0.5697021-1.1356812,1.3553467-2.006897,2.3606873-2.6138916c1.0053101-0.6032104,2.1447144-0.9047852,3.4255676-0.9047852
	s2.4686584,0.3276978,3.410675,0.9867859V43.4378052z"/>
<path class="st0" d="M45.1027832,42.6365662v14.6889954h-3.0383301V42.6365662H45.1027832z M42.1724548,37.0922852
	c0.3536987-0.3388062,0.8265991-0.5063171,1.4111633-0.5063171c0.5845947,0,1.0611877,0.167511,1.4260864,0.5063171
	c0.3648987,0.3388977,0.5473633,0.7633972,0.5473633,1.2808838c0,0.5176086-0.1824646,0.9346008-0.5473633,1.2547913
	c-0.3648987,0.3202209-0.8414917,0.4803162-1.4260864,0.4803162c-0.5845642,0-1.0574646-0.1600952-1.4111633-0.4803162
	c-0.3574524-0.3201904-0.5324707-0.7371826-0.5324707-1.2547913C41.6399841,37.8556824,41.8187256,37.4311829,42.1724548,37.0922852
	z"/>
<path class="st0" d="M52.3673706,46.4090881c-0.8080139,0.8638916-1.2138672,2.0479126-1.2138672,3.5596924
	c0,1.5117188,0.4021301,2.6957092,1.2138672,3.5596008c0.8079834,0.8638,1.8877869,1.2920532,3.2394104,1.2920532
	c0.8526611,0,1.6159668-0.2010803,2.2936401-0.5995483c0.6776733-0.398407,1.2100525-0.9642944,1.6010742-1.6940918
	c0.3909912-0.7297974,0.5845947-1.582489,0.5845947-2.5580139c0-0.9755859-0.1974182-1.8096008-0.5845947-2.546875
	c-0.3910217-0.7372131-0.9234009-1.3069153-1.6010742-1.7053223c-0.6776733-0.3983765-1.440979-0.5994873-2.2936401-0.5994873
	C54.2551575,45.1170959,53.175354,45.5489807,52.3673706,46.4090881z M58.0865784,43.4378052
	c0.9420166,0.6590881,1.6085205,1.5303955,1.9995117,2.6138916v-3.4107056h3.0382996v14.8491211
	c0,1.3665161-0.2792053,2.5803833-0.8414917,3.6378479c-0.5585022,1.0574341-1.3628235,1.8877869-2.4128113,2.4909668
	c-1.0499878,0.6032104-2.2936096,0.9048157-3.7308655,0.9048157c-2.0628052,0-3.7271729-0.487793-4.9968872-1.467041
	c-1.2696838-0.9792786-2.0664978-2.3011169-2.3867188-3.9729309h3.0122681
	c0.2494812,0.8712769,0.7297974,1.5489502,1.440979,2.0404663c0.7111816,0.4877625,1.6159668,0.7335205,2.7181091,0.7335205
	c1.2063904,0,2.2043152-0.3723755,2.9862061-1.1207886c0.7819214-0.7446899,1.1729126-1.8319092,1.1729126-3.2505493v-3.5708313
	c-0.3909912,1.0835571-1.0574951,1.954834-1.9995117,2.6138916s-2.0776672,0.9867249-3.410675,0.9867249
	s-2.4202576-0.3016052-3.4255676-0.9048157c-1.0053406-0.6031799-1.7909851-1.4744873-2.3606873-2.6138916
	c-0.5696716-1.1355896-0.8526611-2.4797974-0.8526611-4.0249939s0.2829895-2.8596191,0.8526611-3.9990234
	c0.5697021-1.1356812,1.3553467-2.006897,2.3606873-2.6138916c1.0053101-0.6032104,2.1447144-0.9047852,3.4255676-0.9047852
	s2.4686584,0.3276978,3.410675,0.9867859V43.4378052z"/>
<path class="st0" d="M74.6665649,38.1357117c0.282959-0.28302,0.6404114-0.4244995,1.0648804-0.4244995
	s0.7819519,0.1414795,1.0649414,0.4244995c0.2829895,0.2829895,0.4281921,0.6403809,0.4281921,1.0648804
	s-0.1414795,0.759613-0.4281921,1.0537109c-0.2829895,0.2941895-0.6404724,0.4393921-1.0649414,0.4393921
	s-0.7819214-0.1452026-1.0648804-0.4393921c-0.2829895-0.2940979-0.4244995-0.644104-0.4244995-1.0537109
	S74.3835754,38.4187012,74.6665649,38.1357117z M69.9489441,38.1357117c0.282959-0.28302,0.6404114-0.4244995,1.0649109-0.4244995
	c0.424469,0,0.7856445,0.1414795,1.0797729,0.4244995c0.2941589,0.2829895,0.4393921,0.6403809,0.4393921,1.0648804
	s-0.1452332,0.759613-0.4393921,1.0537109c-0.2941284,0.2941895-0.6515808,0.4393921-1.0797729,0.4393921
	s-0.7819519-0.1452026-1.0649109-0.4393921c-0.2829895-0.2940979-0.4282227-0.644104-0.4282227-1.0537109
	S69.6622314,38.4187012,69.9489441,38.1357117z M80.3187866,42.6410828v14.6889954H77.254303v-3.1984558
	c-0.3723145,1.0835571-1.0238953,1.9250488-1.9473267,2.5207825c-0.9234009,0.5957642-1.9994812,0.8936462-3.2245178,0.8936462
	c-1.7053223,0-3.0755615-0.5510864-4.103241-1.6532288c-1.0314026-1.1021118-1.5452271-2.6734314-1.5452271-4.7176208v-8.5303955
	h3.0383301v8.2102051c0,1.3329773,0.3388367,2.3606567,1.0127869,3.0792847s1.6011047,1.0798035,2.7739868,1.0798035
	s2.1781921-0.3909607,2.9042664-1.1728821c0.7298279-0.7819214,1.0947266-1.9176025,1.0947266-3.4107056v-7.7820129h3.0643921
	L80.3187866,42.6410828z"/>
<path class="st0" d="M106.5100708,44.0514832c1.0388184,1.1020813,1.5601196,2.6734009,1.5601196,4.7175903v8.556488h-3.0383911
	v-8.2362671c0-1.2808533-0.3202209-2.2713318-0.9606018-2.9713135c-0.6404114-0.7037048-1.5192261-1.0537109-2.6399231-1.0537109
	c-1.1914978,0-2.1372986,0.3760071-2.8372803,1.131897c-0.7037048,0.7558899-1.0537109,1.8617249-1.0537109,3.3175964v7.8117981
	h-3.0383911v-8.2362671c0-1.2808533-0.3202209-2.2713318-0.9606323-2.9713135
	c-0.6404419-0.7000122-1.519165-1.0537109-2.6399231-1.0537109c-1.1914978,0-2.1372681,0.3760071-2.8372803,1.131897
	c-0.7037354,0.7558899-1.0537415,1.8617249-1.0537415,3.3175964v7.8117981h-3.0383301V42.6365662h3.0383301v3.0643921
	c0.372345-1.0648804,0.9941711-1.8840942,1.865448-2.4537964c0.8713074-0.5697021,1.89151-0.8526001,3.0643921-0.8526001
	c1.1729126,0,2.2862244,0.3016052,3.1873169,0.9048157c0.8973083,0.6031799,1.5489197,1.4743958,1.9585266,2.6138
	c0.4244995-1.1021118,1.1095886-1.9622192,2.0515747-2.5841064c0.9421082-0.6217957,2.007019-0.9345093,3.1985168-0.9345093
	c1.7424927,0,3.1314087,0.5510254,4.1701965,1.6531982L106.5100708,44.0514832z"/>
<path class="st0" d="M123.9321899,44.0516663c1.0314026,1.1021118,1.5451965,2.6734009,1.5451965,4.7175903v8.556488h-3.0382996
	v-8.2362671c0-1.3143616-0.3388977-2.3309021-1.0127869-3.0531921c-0.6739502-0.7186279-1.5973816-1.0798035-2.7739868-1.0798035
	s-2.1782227,0.3871765-2.9042969,1.1579895c-0.7297974,0.7745056-1.094696,1.9063721-1.094696,3.3994751v7.8117981h-3.0383301
	V42.6367798h3.0383301v3.2244873c0.3909607-1.1022034,1.0500183-1.9548035,1.9734497-2.5579834
	c0.9234009-0.6032104,1.9920349-0.9048157,3.1984253-0.9048157c1.7053528,0,3.075592,0.5509949,4.103302,1.6531982H123.9321899z"/>
<path class="st0" d="M132.6073914,46.4082031c-0.8079834,0.8638916-1.2138367,2.0479126-1.2138367,3.5596313
	c0,1.5117493,0.4020996,2.6958008,1.2138367,3.5596313c0.8079834,0.8638306,1.8877869,1.2920532,3.2394104,1.2920532
	c0.8526611,0,1.6159668-0.2010803,2.2936401-0.5994873c0.6739807-0.398407,1.2063599-0.964386,1.6010742-1.6941833
	c0.3909912-0.7297974,0.5845947-1.5824585,0.5845947-2.5580139c0-0.9755249-0.1972961-1.8096008-0.5845947-2.5468445
	c-0.3910217-0.7372131-0.9234009-1.3069153-1.6010742-1.7052917c-0.6739502-0.398407-1.440979-0.5995178-2.2936401-0.5995178
	C134.4951782,45.1161804,133.4153748,45.5480957,132.6073914,46.4082031z M138.3265991,43.4368896
	c0.9420166,0.6590881,1.6085205,1.5303955,1.9995117,2.6138916v-3.4107056h3.0382996v14.6890259h-3.0382996v-3.410675
	c-0.3909912,1.0835266-1.0574951,1.954834-1.9995117,2.6138611c-0.9420166,0.6590576-2.0776672,0.9867249-3.410675,0.9867249
	c-1.3329773,0-2.4202576-0.3016052-3.4255676-0.9048157c-1.0053406-0.6032104-1.7909851-1.4744873-2.3606873-2.6138611
	c-0.5696716-1.1356506-0.8526611-2.4797974-0.8526611-4.0250549c0-1.5452271,0.2829895-2.8595886,0.8526611-3.9989929
	c0.5697021-1.1394043,1.3553467-2.006897,2.3606873-2.6138c1.0053101-0.6032104,2.1447144-0.9047852,3.4255676-0.9047852
	c1.2808838,0,2.4686584,0.3275757,3.410675,0.9866943V43.4368896z"/>
<path class="st0" d="M150.5983887,46.4082031c-0.8079834,0.8638916-1.2138672,2.0479126-1.2138672,3.5596313
	c0,1.5117493,0.4021301,2.6958008,1.2138672,3.5596313c0.8079834,0.8638306,1.8877869,1.2920532,3.2394104,1.2920532
	c0.8526611,0,1.6159668-0.2010803,2.2936401-0.5994873c0.6739807-0.398407,1.2063599-0.964386,1.6010742-1.6941833
	c0.3909912-0.7297974,0.5845947-1.5824585,0.5845947-2.5580139c0-0.9755249-0.1974182-1.8096008-0.5845947-2.5468445
	c-0.3910217-0.7372131-0.9234009-1.3069153-1.6010742-1.7052917c-0.6739502-0.398407-1.440979-0.5995178-2.2936401-0.5995178
	C152.4861755,45.1161804,151.4063721,45.5480957,150.5983887,46.4082031z M156.3175964,43.4368896
	c0.9420166,0.6590881,1.6085205,1.5303955,1.9995117,2.6138916v-3.4107056h3.0382996v14.6890259h-3.0382996v-3.410675
	c-0.3909912,1.0835266-1.0574951,1.954834-1.9995117,2.6138611c-0.9420166,0.6590576-2.0776672,0.9867249-3.410675,0.9867249
	c-1.3329773,0-2.4202576-0.3016052-3.4255676-0.9048157c-1.0053406-0.6032104-1.7909851-1.4744873-2.3606873-2.6138611
	c-0.5696716-1.1356506-0.8526611-2.4797974-0.8526611-4.0250549c0-1.5452271,0.2829895-2.8595886,0.8526611-3.9989929
	c0.5697021-1.1394043,1.3553467-2.006897,2.3606873-2.6138c1.0053101-0.6032104,2.1447144-0.9047852,3.4255676-0.9047852
	c1.2808838,0,2.4686584,0.3275757,3.410675,0.9866943V43.4368896z"/>
<path class="st0" d="M173.9781799,43.7720032c1.0388184,0.8787842,1.6755371,2.059082,1.9064331,3.5335999h-2.8782654
	c-0.1228638-0.8006287-0.4654236-1.4447021-1.0276794-1.9325256c-0.5585022-0.487793-1.3031921-0.73349-2.226593-0.73349
	c-0.7633362,0-1.3553467,0.1824036-1.7723694,0.5473022s-0.6255493,0.8563843-0.6255493,1.478302
	c0,0.4617004,0.1526489,0.8339844,0.4542542,1.120697c0.3016052,0.2829895,0.6813965,0.5064087,1.1319275,0.6665039
	c0.4542847,0.1601257,1.0984192,0.3388367,1.9324951,0.5324402c1.1021423,0.2494812,1.9957581,0.5064087,2.6771545,0.7745056
	c0.6851196,0.2680664,1.2697144,0.6888428,1.7612305,1.2659607c0.4877014,0.5771484,0.73349,1.362793,0.73349,2.3606873
	c0,1.2250061-0.4653931,2.2228699-1.3999939,2.9862061c-0.9346008,0.7633057-2.1894226,1.1468201-3.7718811,1.1468201
	c-1.8319397,0-3.3101501-0.4281921-4.4383545-1.2808838c-1.1282043-0.8526611-1.8096008-2.0441589-2.0404663-3.5707703h2.960144
	c0.0893555,0.8005371,0.4430847,1.4483948,1.0649109,1.9473572c0.6218262,0.4989319,1.440979,0.7446899,2.4537659,0.7446899
	c0.7297974,0,1.299469-0.1899109,1.7202148-0.5733948c0.4170532-0.3835449,0.6255493-0.8675842,0.6255493-1.4521484
	c0-0.513855-0.1600952-0.9234314-0.4803162-1.2250366s-0.7186279-0.5361633-1.1989441-0.7074585
	c-0.4803467-0.1675415-1.1356506-0.3425598-1.9734497-0.5212708c-1.0649109-0.2494812-1.9324646-0.4989624-2.5989685-0.7446899
	c-0.6664734-0.2494812-1.2361755-0.6516113-1.7053223-1.2138367c-0.4729004-0.5585327-0.707489-1.3181152-0.707489-2.2787781
	c0-1.2435913,0.4654541-2.2527161,1.4000244-3.0271912c0.9346008-0.7744141,2.2266235-1.1578979,3.8798523-1.1578979
	c1.6531982,0,3.1053467,0.4393005,4.1441956,1.3180847V43.7720032z"/>
<path class="st0" d="M182.1255188,42.6365662v14.6889954h-3.0383301V42.6365662H182.1255188z M179.1914368,37.0922852
	c0.3537292-0.3388062,0.8266296-0.5063171,1.4112244-0.5063171c0.5845642,0,1.0611572,0.167511,1.4260559,0.5063171
	c0.3648987,0.3388977,0.5473633,0.7633972,0.5473633,1.2808838c0,0.5176086-0.1824646,0.9346008-0.5473633,1.2547913
	c-0.3648987,0.3202209-0.8414917,0.4803162-1.4260559,0.4803162c-0.5845947,0-1.0574951-0.1600952-1.4112244-0.4803162
	c-0.3574524-0.3201904-0.5324402-0.7371826-0.5324402-1.2547913
	C178.6589966,37.8556824,178.8377075,37.4311829,179.1914368,37.0922852z"/>
<path class="st0" d="M199.3427124,42.6388855v14.6890259h-3.0643921v-3.1984558
	c-0.3723145,1.0835266-1.0201721,1.9250183-1.9473267,2.5207825c-0.9234009,0.5957336-1.9995117,0.8936157-3.2245178,0.8936157
	c-1.7053528,0-3.0755615-0.5510559-4.103241-1.6531982c-1.0313721-1.1021423-1.5452271-2.6734314-1.5452271-4.7176208v-8.5304565
	h3.0383606v8.2102356c0,1.3330078,0.3388062,2.3606873,1.0127563,3.0792847
	c0.6739502,0.7186584,1.6010742,1.0798035,2.7739868,1.0798035c1.1728821,0,2.1781921-0.3909607,2.9042664-1.1728821
	c0.7298279-0.7819214,1.0947266-1.917572,1.0947266-3.410675v-7.7819519h3.0643921L199.3427124,42.6388855z"/>
<path class="st0" d="M225.5340881,44.0514832c1.0388184,1.1020813,1.5601196,2.6734009,1.5601196,4.7175903v8.556488h-3.0382996
	v-8.2362671c0-1.2808533-0.3203125-2.2713318-0.9606934-2.9713135c-0.6404114-0.7037048-1.5192261-1.0537109-2.6399231-1.0537109
	c-1.1914978,0-2.1372986,0.3760071-2.8372803,1.131897c-0.7037048,0.7558899-1.0537109,1.8617249-1.0537109,3.3175964v7.8117981
	h-3.0383911v-8.2362671c0-1.2808533-0.3202209-2.2713318-0.9606323-2.9713135
	c-0.6404419-0.7037048-1.519165-1.0537109-2.6399231-1.0537109c-1.1914978,0-2.1372375,0.3760071-2.8372498,1.131897
	c-0.7037354,0.7558899-1.0537415,1.8617249-1.0537415,3.3175964v7.8117981h-3.0383606V42.6365662h3.0383606v3.0643921
	c0.3723145-1.0648804,0.9941406-1.8840942,1.865448-2.4537964c0.8712769-0.5697021,1.89151-0.8526001,3.0643921-0.8526001
	s2.2861938,0.3016052,3.1835022,0.9048157c0.8973999,0.6031799,1.5490112,1.4743958,1.9585876,2.6138
	c0.4244995-1.1021118,1.1096191-1.9622192,2.0516052-2.5841064c0.9420166-0.6217957,2.007019-0.9345093,3.1985168-0.9345093
	c1.7424927,0,3.1313782,0.5510254,4.1701965,1.6531982L225.5340881,44.0514832z"/>
<polygon class="st0" points="13.5397034,8.5196838 7.7535095,31.3742676 0.0050049,31.3742676 5.7912445,8.5196838 "/>
<polygon class="st0" points="27.0747986,8.5196838 21.2885132,31.3742676 13.5400085,31.3742676 19.3262634,8.5196838 "/>
<polygon class="st0" points="40.6056824,8.5196838 34.8194885,31.3742676 27.0709839,31.3742676 32.8572388,8.5196838 "/>
<polygon class="st0" points="13.5394897,8.5192566 16.749115,18.4385376 9.0006104,18.4385376 5.7910004,8.5192566 "/>
<polygon class="st0" points="27.1335144,8.5192566 30.3431091,18.4385376 22.5946045,18.4385376 19.3850098,8.5192566 "/>
<polygon class="st0" points="169.8905029,8.5196838 175.6766968,31.3742676 167.9282532,31.3742676 162.1419983,8.5196838 "/>
<polygon class="st0" points="156.3554993,8.5196838 162.1417847,31.3742676 154.3932495,31.3742676 148.6069946,8.5196838 "/>
<polygon class="st0" points="142.8244934,8.5196838 148.6107788,31.3742676 140.8622437,31.3742676 135.0759888,8.5196838 "/>
<polygon class="st0" points="169.8901062,8.5192566 166.6805115,18.4385376 158.9320068,18.4385376 162.1416016,8.5192566 "/>
<polygon class="st0" points="156.2961121,8.5192566 153.0865173,18.4385376 145.3380127,18.4385376 148.5476074,8.5192566 "/>
<g>
</g>
<g>
</g>
<g>
</g>
<g>
</g>
<g>
</g>
<g>
</g>
</svg>
